Coordinates
version=1
nRows=8
nColumns=27
inDegrees=yes

Units are S.I. units (second, meters, Newtons, ...)
If the header above contains a line with 'inDegrees', this indicates whether rotational values are in degrees (yes) or radians (no).

endheader
time	pelvis_rotation	pelvis_tilt	pelvis_list	pelvis_tx	pelvis_ty	pelvis_tz	hip_flexion_r	hip_adduction_r	hip_rotation_r	knee_angle_r	knee_rotation_r	knee_adduction_r	knee_angle_r_beta	ankle_angle_r	subtalar_angle_r	mtp_angle_r	hip_flexion_l	hip_adduction_l	hip_rotation_l	knee_angle_l	knee_rotation_l	knee_adduction_l	knee_angle_l_beta	ankle_angle_l	subtalar_angle_l	mtp_angle_l
      3.27500000	      6.42872431	    -34.20152186	      5.16352139	     -0.04167574	      0.54984653	     -1.17759188	    116.57953502	    -43.71405596	     14.81060377	     94.93793085	      0.00000000	      0.00000000	      1.65697948	     10.70379044	      0.00000000	      0.00000000	    110.22932564	    -28.65006314	     10.61419936	     88.82908148	      0.00000000	      0.00000000	      1.55035994	      7.07913684	      0.00000000	      0.00000000
      3.28000000	      6.33271422	    -34.18934576	      5.13447370	     -0.04158500	      0.54837313	     -1.17758064	    116.80633811	    -43.62115274	     14.99226904	     95.15677800	      0.00000000	      0.00000000	      1.66079908	     10.77139304	      0.00000000	      0.00000000	    110.43745421	    -28.77066874	     10.74185282	     89.07163812	      0.00000000	      0.00000000	      1.55459336	      7.16025080	      0.00000000	      0.00000000
      3.28500000	      6.29509944	    -34.13779208	      5.09312354	     -0.04143155	      0.54689871	     -1.17758075	    116.97691180	    -43.62229063	     15.14074167	     95.37545690	      0.00000000	      0.00000000	      1.66461575	     10.83832651	      0.00000000	      0.00000000	    110.62237207	    -28.81617248	     10.90034390	     89.31158359	      0.00000000	      0.00000000	      1.55878119	      7.23708736	      0.00000000	      0.00000000
      3.29000000	      6.28079959	    -34.07545244	      5.05634372	     -0.04129711	      0.54539866	     -1.17760469	    117.15171288	    -43.65064176	     15.29533805	     95.59991951	      0.00000000	      0.00000000	      1.66853336	     10.90631933	      0.00000000	      0.00000000	    110.79820710	    -28.82341124	     11.06794632	     89.55602063	      0.00000000	      0.00000000	      1.56304742	      7.33635213	      0.00000000	      0.00000000
      3.29500000	      6.20140090	    -34.01533446	      5.04249962	     -0.04117040	      0.54389726	     -1.17759920	    117.34503643	    -43.57547364	     15.49498046	     95.81964195	      0.00000000	      0.00000000	      1.67236824	     10.96478008	      0.00000000	      0.00000000	    110.95036401	    -28.91973308	     11.18919765	     89.79539459	      0.00000000	      0.00000000	      1.56722529	      7.40162005	      0.00000000	      0.00000000
      3.30000000	      6.20636862	    -33.97160868	      5.00607614	     -0.04101514	      0.54236535	     -1.17764355	    117.53960842	    -43.62416586	     15.65260925	     96.05002200	      0.00000000	      0.00000000	      1.67638913	     11.05949391	      0.00000000	      0.00000000	    111.15429118	    -28.89968002	     11.37322329	     90.04683424	      0.00000000	      0.00000000	      1.57161374	      7.50893313	      0.00000000	      0.00000000
      3.30500000	      6.14977424	    -33.87052518	      4.96992539	     -0.04083198	      0.54083774	     -1.17766883	    117.67442971	    -43.60551709	     15.81755776	     96.27348556	      0.00000000	      0.00000000	      1.68028931	     11.14532527	      0.00000000	      0.00000000	    111.28274531	    -28.95259296	     11.52910149	     90.29441768	      0.00000000	      0.00000000	      1.57593488	      7.60236407	      0.00000000	      0.00000000
      3.31000000	      6.11908807	    -33.81849079	      4.94008941	     -0.04068456	      0.53930648	     -1.17771087	    117.86776163	    -43.60524615	     15.99104573	     96.49845794	      0.00000000	      0.00000000	      1.68421581	     11.21214623	      0.00000000	      0.00000000	    111.46451694	    -28.96720021	     11.69727026	     90.54298162	      0.00000000	      0.00000000	      1.58027314	      7.69311559	      0.00000000	      0.00000000
